<svg width="160" height="44" viewBox="0 0 160 44" fill="none" xmlns="http://www.w3.org/2000/svg">
<rect width="160" height="44" rx="22" fill="white" fill-opacity="0"/>
<g clip-path="url(#clip0_45_1313)">
<path d="M52.817 14.37C51.261 13.6557 49.619 13.1464 47.9319 12.8548C47.9166 12.8519 47.9007 12.854 47.8867 12.8606C47.8726 12.8673 47.8609 12.8782 47.8534 12.8919C47.6424 13.2672 47.4087 13.7567 47.2451 14.1414C45.4004 13.8652 43.5651 13.8652 41.7583 14.1414C41.5947 13.7481 41.3525 13.2672 41.1406 12.8919C41.1328 12.8785 41.1211 12.8679 41.1071 12.8613C41.0931 12.8547 41.0774 12.8524 41.0621 12.8549C39.3749 13.1458 37.7327 13.6551 36.1769 14.3699C36.1636 14.3756 36.1524 14.3852 36.1448 14.3976C33.0334 19.046 32.181 23.5801 32.5992 28.058C32.6004 28.0689 32.6038 28.0796 32.6091 28.0892C32.6145 28.0988 32.6217 28.1073 32.6304 28.1141C34.6832 29.6217 36.6717 30.5369 38.6233 31.1435C38.6385 31.148 38.6547 31.1478 38.6697 31.1429C38.6848 31.1379 38.698 31.1285 38.7075 31.1159C39.1691 30.4855 39.5806 29.8207 39.9335 29.1217C39.9384 29.1121 39.9411 29.1016 39.9416 29.0909C39.9421 29.0802 39.9404 29.0695 39.9364 29.0595C39.9325 29.0495 39.9265 29.0405 39.9188 29.033C39.9112 29.0255 39.902 29.0197 39.8919 29.016C39.2391 28.7684 38.6176 28.4665 38.0197 28.1237C38.0088 28.1173 37.9996 28.1083 37.993 28.0975C37.9864 28.0867 37.9826 28.0745 37.9818 28.0619C37.9811 28.0492 37.9835 28.0366 37.9887 28.0251C37.994 28.0136 38.002 28.0036 38.0121 27.996C38.1379 27.9017 38.2638 27.8037 38.3839 27.7046C38.3946 27.6958 38.4075 27.6901 38.4212 27.6883C38.4349 27.6864 38.4489 27.6884 38.4615 27.6941C42.3893 29.4874 46.6415 29.4874 50.5229 27.6941C50.5355 27.6881 50.5496 27.6858 50.5635 27.6874C50.5774 27.6891 50.5906 27.6947 50.6014 27.7036C50.7216 27.8026 50.8474 27.9017 50.9742 27.996C50.9843 28.0035 50.9924 28.0135 50.9977 28.0249C51.0031 28.0364 51.0055 28.0489 51.0049 28.0615C51.0042 28.0741 51.0005 28.0864 50.994 28.0972C50.9875 28.108 50.9784 28.1171 50.9676 28.1236C50.3695 28.4729 49.7429 28.7711 49.0946 29.015C49.0845 29.0188 49.0754 29.0248 49.0678 29.0324C49.0602 29.04 49.0542 29.0492 49.0504 29.0592C49.0466 29.0693 49.0449 29.0801 49.0455 29.0908C49.0461 29.1016 49.049 29.1121 49.0539 29.1217C49.4143 29.8197 49.8258 30.4845 50.2789 31.1149C50.2882 31.1279 50.3013 31.1376 50.3164 31.1428C50.3315 31.1479 50.3478 31.1482 50.3631 31.1435C52.3241 30.5368 54.3126 29.6216 56.3654 28.1141C56.3742 28.1076 56.3816 28.0994 56.387 28.0898C56.3924 28.0803 56.3957 28.0698 56.3967 28.0589C56.8971 22.8819 55.5585 18.385 52.8482 14.3985C52.8416 14.3855 52.8305 14.3755 52.817 14.37ZM40.52 25.3314C39.3375 25.3314 38.3631 24.2457 38.3631 22.9124C38.3631 21.5792 39.3186 20.4935 40.5201 20.4935C41.7309 20.4935 42.6958 21.5887 42.6769 22.9125C42.6769 24.2457 41.7214 25.3314 40.52 25.3314ZM48.4948 25.3314C47.3123 25.3314 46.3379 24.2457 46.3379 22.9124C46.3379 21.5792 47.2933 20.4935 48.4948 20.4935C49.7056 20.4935 50.6705 21.5887 50.6516 22.9125C50.6516 24.2457 49.7056 25.3314 48.4948 25.3314Z" fill="white"/>
</g>
<path d="M65.62 28V16.48H69.292C69.388 16.48 69.5773 16.4827 69.86 16.488C70.148 16.4933 70.4253 16.512 70.692 16.544C71.604 16.6613 72.3747 16.9867 73.004 17.52C73.6387 18.048 74.1187 18.7227 74.444 19.544C74.7693 20.3653 74.932 21.264 74.932 22.24C74.932 23.216 74.7693 24.1147 74.444 24.936C74.1187 25.7573 73.6387 26.4347 73.004 26.968C72.3747 27.496 71.604 27.8187 70.692 27.936C70.4307 27.968 70.156 27.9867 69.868 27.992C69.58 27.9973 69.388 28 69.292 28H65.62ZM67.58 26.184H69.292C69.452 26.184 69.6547 26.1787 69.9 26.168C70.1507 26.1573 70.372 26.1333 70.564 26.096C71.108 25.9947 71.5507 25.752 71.892 25.368C72.2333 24.984 72.484 24.5173 72.644 23.968C72.8093 23.4187 72.892 22.8427 72.892 22.24C72.892 21.616 72.8093 21.0293 72.644 20.48C72.4787 19.9307 72.2227 19.4693 71.876 19.096C71.5347 18.7227 71.0973 18.4853 70.564 18.384C70.372 18.3413 70.1507 18.3173 69.9 18.312C69.6547 18.3013 69.452 18.296 69.292 18.296H67.58V26.184ZM77.5431 18.048V16.28H79.4711V18.048H77.5431ZM77.5431 28V19.36H79.4711V28H77.5431ZM85.7635 28.24C84.6968 28.24 83.8302 28 83.1635 27.52C82.4968 27.04 82.0915 26.3653 81.9475 25.496L83.9155 25.192C84.0168 25.6187 84.2408 25.9547 84.5875 26.2C84.9342 26.4453 85.3715 26.568 85.8995 26.568C86.3635 26.568 86.7208 26.4773 86.9715 26.296C87.2275 26.1093 87.3555 25.856 87.3555 25.536C87.3555 25.3387 87.3075 25.1813 87.2115 25.064C87.1208 24.9413 86.9182 24.824 86.6035 24.712C86.2888 24.6 85.8062 24.4587 85.1555 24.288C84.4302 24.096 83.8542 23.8907 83.4275 23.672C83.0008 23.448 82.6942 23.184 82.5075 22.88C82.3208 22.576 82.2275 22.208 82.2275 21.776C82.2275 21.2373 82.3688 20.768 82.6515 20.368C82.9342 19.968 83.3288 19.6613 83.8355 19.448C84.3422 19.2293 84.9395 19.12 85.6275 19.12C86.2995 19.12 86.8942 19.224 87.4115 19.432C87.9342 19.64 88.3555 19.936 88.6755 20.32C88.9955 20.704 89.1928 21.1547 89.2675 21.672L87.2995 22.024C87.2515 21.656 87.0835 21.3653 86.7955 21.152C86.5128 20.9387 86.1342 20.8187 85.6595 20.792C85.2062 20.7653 84.8408 20.8347 84.5635 21C84.2862 21.16 84.1475 21.3867 84.1475 21.68C84.1475 21.8453 84.2035 21.9867 84.3155 22.104C84.4275 22.2213 84.6515 22.3387 84.9875 22.456C85.3288 22.5733 85.8355 22.7173 86.5075 22.888C87.1955 23.064 87.7448 23.2667 88.1555 23.496C88.5715 23.72 88.8702 23.9893 89.0515 24.304C89.2382 24.6187 89.3315 25 89.3315 25.448C89.3315 26.3173 89.0142 27 88.3795 27.496C87.7502 27.992 86.8782 28.24 85.7635 28.24ZM95.3958 28.24C94.5051 28.24 93.7451 28.0427 93.1158 27.648C92.4864 27.248 92.0038 26.704 91.6678 26.016C91.3371 25.328 91.1691 24.5493 91.1638 23.68C91.1691 22.7947 91.3424 22.0107 91.6838 21.328C92.0304 20.64 92.5211 20.1013 93.1558 19.712C93.7904 19.3173 94.5451 19.12 95.4198 19.12C96.4011 19.12 97.2304 19.368 97.9078 19.864C98.5904 20.3547 99.0358 21.0267 99.2438 21.88L97.3238 22.4C97.1744 21.936 96.9264 21.576 96.5798 21.32C96.2331 21.0587 95.8384 20.928 95.3958 20.928C94.8944 20.928 94.4811 21.048 94.1558 21.288C93.8304 21.5227 93.5904 21.848 93.4358 22.264C93.2811 22.68 93.2038 23.152 93.2038 23.68C93.2038 24.5013 93.3878 25.1653 93.7558 25.672C94.1238 26.1787 94.6704 26.432 95.3958 26.432C95.9078 26.432 96.3104 26.3147 96.6038 26.08C96.9024 25.8453 97.1264 25.5067 97.2758 25.064L99.2438 25.504C98.9771 26.384 98.5104 27.0613 97.8438 27.536C97.1771 28.0053 96.3611 28.24 95.3958 28.24ZM104.989 28.24C104.125 28.24 103.37 28.0453 102.725 27.656C102.079 27.2667 101.578 26.7307 101.221 26.048C100.869 25.36 100.693 24.5707 100.693 23.68C100.693 22.7733 100.874 21.9787 101.237 21.296C101.599 20.6133 102.103 20.08 102.749 19.696C103.394 19.312 104.141 19.12 104.989 19.12C105.858 19.12 106.615 19.3147 107.261 19.704C107.906 20.0933 108.407 20.632 108.765 21.32C109.122 22.0027 109.301 22.7893 109.301 23.68C109.301 24.576 109.119 25.368 108.757 26.056C108.399 26.7387 107.898 27.2747 107.253 27.664C106.607 28.048 105.853 28.24 104.989 28.24ZM104.989 26.432C105.757 26.432 106.327 26.176 106.701 25.664C107.074 25.152 107.261 24.4907 107.261 23.68C107.261 22.8427 107.071 22.176 106.693 21.68C106.314 21.1787 105.746 20.928 104.989 20.928C104.471 20.928 104.045 21.0453 103.709 21.28C103.378 21.5093 103.133 21.832 102.973 22.248C102.813 22.6587 102.733 23.136 102.733 23.68C102.733 24.5173 102.922 25.1867 103.301 25.688C103.685 26.184 104.247 26.432 104.989 26.432ZM111.623 28V19.36H113.327V21.464L113.119 21.192C113.226 20.904 113.367 20.6427 113.543 20.408C113.724 20.168 113.94 19.9707 114.191 19.816C114.404 19.672 114.639 19.56 114.895 19.48C115.156 19.3947 115.423 19.344 115.695 19.328C115.967 19.3067 116.231 19.3173 116.487 19.36V21.16C116.231 21.0853 115.935 21.0613 115.599 21.088C115.268 21.1147 114.97 21.208 114.703 21.368C114.436 21.512 114.218 21.696 114.047 21.92C113.882 22.144 113.759 22.4 113.679 22.688C113.599 22.9707 113.559 23.2773 113.559 23.608V28H111.623ZM121.882 28.24C121.087 28.24 120.394 28.04 119.802 27.64C119.21 27.24 118.751 26.696 118.426 26.008C118.1 25.32 117.938 24.544 117.938 23.68C117.938 22.8053 118.1 22.0267 118.426 21.344C118.756 20.656 119.223 20.1147 119.826 19.72C120.428 19.32 121.138 19.12 121.954 19.12C122.775 19.12 123.463 19.32 124.018 19.72C124.578 20.1147 125.002 20.656 125.29 21.344C125.578 22.032 125.722 22.8107 125.722 23.68C125.722 24.5387 125.578 25.3147 125.29 26.008C125.002 26.696 124.572 27.24 124.002 27.64C123.431 28.04 122.724 28.24 121.882 28.24ZM122.178 26.512C122.695 26.512 123.111 26.3947 123.426 26.16C123.746 25.92 123.978 25.5867 124.122 25.16C124.271 24.7333 124.346 24.24 124.346 23.68C124.346 23.1147 124.271 22.6213 124.122 22.2C123.978 21.7733 123.751 21.4427 123.442 21.208C123.132 20.968 122.732 20.848 122.242 20.848C121.724 20.848 121.298 20.976 120.962 21.232C120.626 21.4827 120.378 21.824 120.218 22.256C120.058 22.6827 119.978 23.1573 119.978 23.68C119.978 24.208 120.055 24.688 120.21 25.12C120.37 25.5467 120.612 25.8853 120.938 26.136C121.263 26.3867 121.676 26.512 122.178 26.512ZM124.346 28V21.936H124.106V16.48H126.05V28H124.346Z" fill="white"/>
<defs>
<clipPath id="clip0_45_1313">
<rect width="24" height="24" fill="white" transform="translate(32.5 10)"/>
</clipPath>
</defs>
</svg>
