<svg width="25" height="24" viewBox="0 0 25 24" fill="none" xmlns="http://www.w3.org/2000/svg">
<g id="social media" clip-path="url(#clip0_113_1242)">
<path id="Vector" d="M20.817 4.36997C19.261 3.65574 17.619 3.14642 15.9319 2.85477C15.9166 2.85191 15.9007 2.85396 15.8867 2.86062C15.8726 2.86728 15.8609 2.87822 15.8534 2.89187C15.6424 3.26717 15.4087 3.75667 15.2451 4.14137C13.4004 3.86517 11.5651 3.86517 9.7583 4.14137C9.5947 3.74807 9.3525 3.26717 9.1406 2.89187C9.13276 2.87853 9.12107 2.86786 9.10706 2.86126C9.09306 2.85466 9.07739 2.85243 9.0621 2.85487C7.37488 3.14584 5.7327 3.65511 4.1769 4.36987C4.16359 4.37556 4.15238 4.38524 4.1448 4.39757C1.0334 9.04597 0.181004 13.5801 0.599204 18.058C0.600386 18.0689 0.603757 18.0796 0.609116 18.0892C0.614476 18.0988 0.621714 18.1073 0.630404 18.1141C2.6832 19.6217 4.6717 20.5369 6.6233 21.1435C6.63848 21.148 6.65468 21.1478 6.66972 21.1429C6.68477 21.1379 6.69795 21.1285 6.7075 21.1159C7.1691 20.4855 7.5806 19.8207 7.9335 19.1217C7.93835 19.1121 7.94112 19.1016 7.94163 19.0909C7.94213 19.0802 7.94036 19.0695 7.93643 19.0595C7.9325 19.0495 7.9265 19.0405 7.91883 19.033C7.91115 19.0255 7.90198 19.0197 7.8919 19.016C7.2391 18.7684 6.6176 18.4665 6.0197 18.1237C6.0088 18.1173 5.99964 18.1083 5.99304 18.0975C5.98643 18.0867 5.98258 18.0745 5.98183 18.0619C5.98108 18.0492 5.98345 18.0366 5.98873 18.0251C5.99401 18.0136 6.00204 18.0036 6.0121 17.996C6.1379 17.9017 6.2638 17.8037 6.3839 17.7046C6.39458 17.6958 6.4075 17.6901 6.42121 17.6883C6.43492 17.6864 6.44887 17.6884 6.4615 17.6941C10.3893 19.4874 14.6415 19.4874 18.5229 17.6941C18.5355 17.6881 18.5496 17.6858 18.5635 17.6874C18.5774 17.6891 18.5906 17.6947 18.6014 17.7036C18.7216 17.8026 18.8474 17.9017 18.9742 17.996C18.9843 18.0035 18.9924 18.0135 18.9977 18.0249C19.0031 18.0364 19.0055 18.0489 19.0049 18.0615C19.0042 18.0741 19.0005 18.0864 18.994 18.0972C18.9875 18.108 18.9784 18.1171 18.9676 18.1236C18.3695 18.4729 17.7429 18.7711 17.0946 19.015C17.0845 19.0188 17.0754 19.0248 17.0678 19.0324C17.0602 19.04 17.0542 19.0492 17.0504 19.0592C17.0466 19.0693 17.0449 19.0801 17.0455 19.0908C17.0461 19.1016 17.049 19.1121 17.0539 19.1217C17.4143 19.8197 17.8258 20.4845 18.2789 21.1149C18.2882 21.1279 18.3013 21.1376 18.3164 21.1428C18.3315 21.1479 18.3478 21.1482 18.3631 21.1435C20.3241 20.5368 22.3126 19.6216 24.3654 18.1141C24.3742 18.1076 24.3816 18.0994 24.387 18.0898C24.3924 18.0803 24.3957 18.0698 24.3967 18.0589C24.8971 12.8819 23.5585 8.38497 20.8482 4.39847C20.8416 4.38552 20.8305 4.37548 20.817 4.36997ZM8.52 15.3314C7.3375 15.3314 6.3631 14.2457 6.3631 12.9124C6.3631 11.5792 7.3186 10.4935 8.5201 10.4935C9.7309 10.4935 10.6958 11.5887 10.6769 12.9125C10.6769 14.2457 9.7214 15.3314 8.52 15.3314ZM16.4948 15.3314C15.3123 15.3314 14.3379 14.2457 14.3379 12.9124C14.3379 11.5792 15.2933 10.4935 16.4948 10.4935C17.7056 10.4935 18.6705 11.5887 18.6516 12.9125C18.6516 14.2457 17.7056 15.3314 16.4948 15.3314Z" fill="white"/>
</g>
<defs>
<clipPath id="clip0_113_1242">
<rect width="24" height="24" fill="white" transform="translate(0.5)"/>
</clipPath>
</defs>
</svg>
