<svg width="160" height="44" viewBox="0 0 160 44" fill="none" xmlns="http://www.w3.org/2000/svg">
<rect width="160" height="44" rx="22" fill="white" fill-opacity="0"/>
<g clip-path="url(#clip0_45_1311)">
<path d="M46.9796 20.92V24.2H54.8196C54.5796 26.04 53.9666 27.387 53.0326 28.333C51.8856 29.48 50.0996 30.733 46.9796 30.733C42.1526 30.733 38.3796 26.84 38.3796 22.013C38.3796 17.186 42.1526 13.293 46.9796 13.293C49.5796 13.293 51.4866 14.32 52.8866 15.64L55.1936 13.333C53.2466 11.44 50.6326 10 46.9796 10C40.3666 10 34.8066 15.387 34.8066 22C34.8066 28.613 40.3666 34 46.9796 34C50.5526 34 53.2466 32.827 55.3526 30.64C57.5126 28.48 58.1926 25.427 58.1926 22.973C58.1926 22.213 58.1396 21.506 58.0196 20.92H46.9796Z" fill="white"/>
</g>
<path d="M72.372 28.24C71.6253 28.24 70.924 28.1093 70.268 27.848C69.6173 27.5813 69.044 27.192 68.548 26.68C68.0573 26.168 67.6733 25.5413 67.396 24.8C67.1187 24.0533 66.98 23.2 66.98 22.24C66.98 20.9813 67.2147 19.9067 67.684 19.016C68.1533 18.12 68.796 17.4347 69.612 16.96C70.428 16.48 71.348 16.24 72.372 16.24C73.7907 16.24 74.9133 16.5707 75.74 17.232C76.572 17.888 77.1347 18.8107 77.428 20L75.46 20.312C75.2413 19.6293 74.884 19.0853 74.388 18.68C73.892 18.2693 73.26 18.064 72.492 18.064C71.7187 18.0533 71.076 18.2213 70.564 18.568C70.052 18.9147 69.6653 19.4027 69.404 20.032C69.148 20.6613 69.02 21.3973 69.02 22.24C69.02 23.0827 69.148 23.816 69.404 24.44C69.66 25.0587 70.044 25.5413 70.556 25.888C71.0733 26.2347 71.7187 26.4133 72.492 26.424C73.0733 26.4293 73.5827 26.3253 74.02 26.112C74.4573 25.8933 74.8147 25.5653 75.092 25.128C75.3693 24.6853 75.556 24.1333 75.652 23.472H73.62V21.96H77.7C77.7107 22.0453 77.7187 22.1707 77.724 22.336C77.7293 22.5013 77.732 22.6 77.732 22.632C77.732 23.72 77.516 24.688 77.084 25.536C76.6573 26.3787 76.044 27.04 75.244 27.52C74.444 28 73.4867 28.24 72.372 28.24ZM83.7148 28.24C82.8508 28.24 82.0961 28.0453 81.4508 27.656C80.8054 27.2667 80.3041 26.7307 79.9468 26.048C79.5948 25.36 79.4188 24.5707 79.4188 23.68C79.4188 22.7733 79.6001 21.9787 79.9628 21.296C80.3254 20.6133 80.8294 20.08 81.4748 19.696C82.1201 19.312 82.8668 19.12 83.7148 19.12C84.5841 19.12 85.3414 19.3147 85.9868 19.704C86.6321 20.0933 87.1334 20.632 87.4908 21.32C87.8481 22.0027 88.0268 22.7893 88.0268 23.68C88.0268 24.576 87.8454 25.368 87.4828 26.056C87.1254 26.7387 86.6241 27.2747 85.9788 27.664C85.3334 28.048 84.5788 28.24 83.7148 28.24ZM83.7148 26.432C84.4828 26.432 85.0534 26.176 85.4268 25.664C85.8001 25.152 85.9868 24.4907 85.9868 23.68C85.9868 22.8427 85.7974 22.176 85.4188 21.68C85.0401 21.1787 84.4721 20.928 83.7148 20.928C83.1974 20.928 82.7708 21.0453 82.4348 21.28C82.1041 21.5093 81.8588 21.832 81.6988 22.248C81.5388 22.6587 81.4588 23.136 81.4588 23.68C81.4588 24.5173 81.6481 25.1867 82.0268 25.688C82.4108 26.184 82.9734 26.432 83.7148 26.432ZM94.1654 28.24C93.3014 28.24 92.5467 28.0453 91.9014 27.656C91.256 27.2667 90.7547 26.7307 90.3974 26.048C90.0454 25.36 89.8694 24.5707 89.8694 23.68C89.8694 22.7733 90.0507 21.9787 90.4134 21.296C90.776 20.6133 91.28 20.08 91.9254 19.696C92.5707 19.312 93.3174 19.12 94.1654 19.12C95.0347 19.12 95.792 19.3147 96.4374 19.704C97.0827 20.0933 97.584 20.632 97.9414 21.32C98.2987 22.0027 98.4774 22.7893 98.4774 23.68C98.4774 24.576 98.296 25.368 97.9334 26.056C97.576 26.7387 97.0747 27.2747 96.4294 27.664C95.784 28.048 95.0294 28.24 94.1654 28.24ZM94.1654 26.432C94.9334 26.432 95.504 26.176 95.8774 25.664C96.2507 25.152 96.4374 24.4907 96.4374 23.68C96.4374 22.8427 96.248 22.176 95.8694 21.68C95.4907 21.1787 94.9227 20.928 94.1654 20.928C93.648 20.928 93.2214 21.0453 92.8854 21.28C92.5547 21.5093 92.3094 21.832 92.1494 22.248C91.9894 22.6587 91.9094 23.136 91.9094 23.68C91.9094 24.5173 92.0987 25.1867 92.4774 25.688C92.8614 26.184 93.424 26.432 94.1654 26.432ZM104.432 32.08C103.952 32.08 103.491 32.0053 103.048 31.856C102.611 31.7067 102.216 31.4907 101.864 31.208C101.512 30.9307 101.224 30.5947 101 30.2L102.776 29.32C102.941 29.6347 103.173 29.8667 103.472 30.016C103.776 30.1707 104.099 30.248 104.44 30.248C104.84 30.248 105.197 30.176 105.512 30.032C105.827 29.8933 106.069 29.6853 106.24 29.408C106.416 29.136 106.499 28.7947 106.488 28.384V25.928H106.728V19.36H108.416V28.416C108.416 28.6347 108.405 28.8427 108.384 29.04C108.368 29.2427 108.339 29.44 108.296 29.632C108.168 30.192 107.923 30.6507 107.56 31.008C107.197 31.3707 106.747 31.64 106.208 31.816C105.675 31.992 105.083 32.08 104.432 32.08ZM104.264 28.24C103.469 28.24 102.776 28.04 102.184 27.64C101.592 27.24 101.133 26.696 100.808 26.008C100.483 25.32 100.32 24.544 100.32 23.68C100.32 22.8053 100.483 22.0267 100.808 21.344C101.139 20.656 101.605 20.1147 102.208 19.72C102.811 19.32 103.52 19.12 104.336 19.12C105.157 19.12 105.845 19.32 106.4 19.72C106.96 20.1147 107.384 20.656 107.672 21.344C107.96 22.032 108.104 22.8107 108.104 23.68C108.104 24.5387 107.96 25.3147 107.672 26.008C107.384 26.696 106.955 27.24 106.384 27.64C105.813 28.04 105.107 28.24 104.264 28.24ZM104.56 26.512C105.077 26.512 105.493 26.3947 105.808 26.16C106.128 25.92 106.36 25.5867 106.504 25.16C106.653 24.7333 106.728 24.24 106.728 23.68C106.728 23.1147 106.653 22.6213 106.504 22.2C106.36 21.7733 106.133 21.4427 105.824 21.208C105.515 20.968 105.115 20.848 104.624 20.848C104.107 20.848 103.68 20.976 103.344 21.232C103.008 21.4827 102.76 21.824 102.6 22.256C102.44 22.6827 102.36 23.1573 102.36 23.68C102.36 24.208 102.437 24.688 102.592 25.12C102.752 25.5467 102.995 25.8853 103.32 26.136C103.645 26.3867 104.059 26.512 104.56 26.512ZM111.379 28V16.24H113.307V28H111.379ZM120.192 28.24C119.317 28.24 118.549 28.0507 117.888 27.672C117.226 27.2933 116.709 26.768 116.336 26.096C115.968 25.424 115.784 24.6507 115.784 23.776C115.784 22.832 115.965 22.0133 116.328 21.32C116.69 20.6213 117.194 20.08 117.84 19.696C118.485 19.312 119.232 19.12 120.08 19.12C120.976 19.12 121.736 19.3307 122.36 19.752C122.989 20.168 123.456 20.7573 123.76 21.52C124.064 22.2827 124.178 23.1813 124.104 24.216H122.192V23.512C122.186 22.5733 122.021 21.888 121.696 21.456C121.37 21.024 120.858 20.808 120.16 20.808C119.37 20.808 118.784 21.0533 118.4 21.544C118.016 22.0293 117.824 22.7413 117.824 23.68C117.824 24.5547 118.016 25.232 118.4 25.712C118.784 26.192 119.344 26.432 120.08 26.432C120.554 26.432 120.962 26.328 121.304 26.12C121.65 25.9067 121.917 25.6 122.104 25.2L124.008 25.776C123.677 26.5547 123.165 27.16 122.472 27.592C121.784 28.024 121.024 28.24 120.192 28.24ZM117.216 24.216V22.76H123.16V24.216H117.216Z" fill="white"/>
<defs>
<clipPath id="clip0_45_1311">
<rect width="24" height="24" fill="white" transform="translate(34.5 10)"/>
</clipPath>
</defs>
</svg>
