<svg width="25" height="24" viewBox="0 0 25 24" fill="none" xmlns="http://www.w3.org/2000/svg">
<g id="social media" clip-path="url(#clip0_113_552)">
<path id="Vector" d="M12.9796 10.92V14.2H20.8196C20.5796 16.04 19.9666 17.387 19.0326 18.333C17.8856 19.48 16.0996 20.733 12.9796 20.733C8.15264 20.733 4.37964 16.84 4.37964 12.013C4.37964 7.186 8.15264 3.293 12.9796 3.293C15.5796 3.293 17.4866 4.32 18.8866 5.64L21.1936 3.333C19.2466 1.44 16.6326 0 12.9796 0C6.36664 0 0.806641 5.387 0.806641 12C0.806641 18.613 6.36664 24 12.9796 24C16.5526 24 19.2466 22.827 21.3526 20.64C23.5126 18.48 24.1926 15.427 24.1926 12.973C24.1926 12.213 24.1396 11.506 24.0196 10.92H12.9796Z" fill="white"/>
</g>
<defs>
<clipPath id="clip0_113_552">
<rect width="24" height="24" fill="white" transform="translate(0.5)"/>
</clipPath>
</defs>
</svg>
