<svg width="160" height="44" viewBox="0 0 160 44" fill="none" xmlns="http://www.w3.org/2000/svg">
<rect width="160" height="44" rx="22" fill="white" fill-opacity="0"/>
<path d="M53.901 11.1528H57.581L49.541 20.3428L59 32.8458H51.594L45.794 25.2618L39.156 32.8458H35.474L44.074 23.0158L35 11.1538H42.594L47.837 18.0858L53.901 11.1528ZM52.61 30.6438H54.649L41.486 13.2398H39.298L52.61 30.6438Z" fill="white"/>
<path d="M70.888 28V18.288H67.16V16.48H76.544V18.288H72.816V28H70.888ZM79.27 28L76.63 19.344L78.518 19.36L80.206 24.904L81.918 19.36H83.542L85.246 24.904L86.942 19.36H88.83L86.19 28H84.686L82.726 22.056L80.774 28H79.27ZM90.9938 18.048V16.28H92.9218V18.048H90.9938ZM90.9938 28V19.36H92.9218V28H90.9938ZM100.942 28C100.371 28.1067 99.8115 28.152 99.2621 28.136C98.7181 28.1253 98.2301 28.0267 97.7981 27.84C97.3661 27.648 97.0381 27.3467 96.8141 26.936C96.6168 26.5627 96.5128 26.1813 96.5021 25.792C96.4915 25.4027 96.4861 24.9627 96.4861 24.472V16.96H98.4061V24.36C98.4061 24.7067 98.4088 25.0107 98.4141 25.272C98.4248 25.5333 98.4808 25.7467 98.5821 25.912C98.7741 26.232 99.0808 26.4107 99.5021 26.448C99.9235 26.4853 100.403 26.464 100.942 26.384V28ZM94.9181 20.872V19.36H100.942V20.872H94.9181ZM106.91 28C106.339 28.1067 105.779 28.152 105.23 28.136C104.686 28.1253 104.198 28.0267 103.766 27.84C103.334 27.648 103.006 27.3467 102.782 26.936C102.585 26.5627 102.481 26.1813 102.47 25.792C102.459 25.4027 102.454 24.9627 102.454 24.472V16.96H104.374V24.36C104.374 24.7067 104.377 25.0107 104.382 25.272C104.393 25.5333 104.449 25.7467 104.55 25.912C104.742 26.232 105.049 26.4107 105.47 26.448C105.891 26.4853 106.371 26.464 106.91 26.384V28ZM100.886 20.872V19.36H106.91V20.872H100.886ZM113.272 28.24C112.398 28.24 111.63 28.0507 110.968 27.672C110.307 27.2933 109.79 26.768 109.416 26.096C109.048 25.424 108.864 24.6507 108.864 23.776C108.864 22.832 109.046 22.0133 109.408 21.32C109.771 20.6213 110.275 20.08 110.92 19.696C111.566 19.312 112.312 19.12 113.16 19.12C114.056 19.12 114.816 19.3307 115.44 19.752C116.07 20.168 116.536 20.7573 116.84 21.52C117.144 22.2827 117.259 23.1813 117.184 24.216H115.272V23.512C115.267 22.5733 115.102 21.888 114.776 21.456C114.451 21.024 113.939 20.808 113.24 20.808C112.451 20.808 111.864 21.0533 111.48 21.544C111.096 22.0293 110.904 22.7413 110.904 23.68C110.904 24.5547 111.096 25.232 111.48 25.712C111.864 26.192 112.424 26.432 113.16 26.432C113.635 26.432 114.043 26.328 114.384 26.12C114.731 25.9067 114.998 25.6 115.184 25.2L117.088 25.776C116.758 26.5547 116.246 27.16 115.552 27.592C114.864 28.024 114.104 28.24 113.272 28.24ZM110.296 24.216V22.76H116.24V24.216H110.296ZM119.529 28V19.36H121.233V21.464L121.025 21.192C121.132 20.904 121.273 20.6427 121.449 20.408C121.631 20.168 121.847 19.9707 122.097 19.816C122.311 19.672 122.545 19.56 122.801 19.48C123.063 19.3947 123.329 19.344 123.601 19.328C123.873 19.3067 124.137 19.3173 124.393 19.36V21.16C124.137 21.0853 123.841 21.0613 123.505 21.088C123.175 21.1147 122.876 21.208 122.609 21.368C122.343 21.512 122.124 21.696 121.953 21.92C121.788 22.144 121.665 22.4 121.585 22.688C121.505 22.9707 121.465 23.2773 121.465 23.608V28H119.529Z" fill="white"/>
</svg>
